<svg xmlns="http://www.w3.org/2000/svg" width="19.365" height="22.732" viewBox="0 0 19.365 22.732">
  <g id="Group_2" data-name="Group 2" transform="translate(-0.008)">
    <path id="Path_50" data-name="Path 50" d="M15.514,22.732a6.475,6.475,0,0,0,2.911-.989c.949-.8.949-2.833.949-2.833V8.542L11.587,0H3.961A5.307,5.307,0,0,0,.914.945a4.236,4.236,0,0,0-.9,2.937V18.91a4.935,4.935,0,0,0,.9,2.833c.9,1.009,3.047.989,3.047.989Z" transform="translate(0)" fill="#fff"/>
    <path id="Path_51" data-name="Path 51" d="M.749,0H0V8.683a.909.909,0,0,0,.909.909H8.593V8.542Z" transform="translate(10.78)" fill="#212634"/>
    <ellipse id="Oval_Copy_9" data-name="Oval Copy 9" cx="2.333" cy="2.291" rx="2.333" ry="2.291" transform="translate(3.409 14.669)" fill="#212634"/>
  </g>
</svg>
