<svg xmlns="http://www.w3.org/2000/svg" width="24.738" height="24.12" viewBox="0 0 24.738 24.12">
  <path id="Icon_awesome-github" data-name="Icon awesome-github" d="M8.274,19.984c0,.1-.115.18-.259.18-.165.015-.279-.065-.279-.18s.115-.18.259-.18S8.274,19.869,8.274,19.984Zm-1.551-.224c-.035.1.065.214.214.244a.234.234,0,0,0,.309-.1c.03-.1-.065-.214-.214-.259A.256.256,0,0,0,6.723,19.759Zm2.2-.085c-.145.035-.244.13-.229.244s.145.165.294.13.244-.13.229-.229S9.072,19.659,8.928,19.674ZM12.209.562A11.959,11.959,0,0,0,0,12.732a12.5,12.5,0,0,0,8.454,11.93c.638.115.863-.279.863-.6S9.3,22.043,9.3,21c0,0-3.491.748-4.224-1.486,0,0-.569-1.451-1.387-1.825,0,0-1.142-.783.08-.768A2.633,2.633,0,0,1,5.7,18.2a2.636,2.636,0,0,0,3.636,1.042,2.772,2.772,0,0,1,.8-1.681c-2.788-.309-5.6-.713-5.6-5.511A3.78,3.78,0,0,1,5.706,9.116a4.712,4.712,0,0,1,.13-3.386c1.042-.324,3.441,1.347,3.441,1.347a11.782,11.782,0,0,1,6.264,0S17.94,5.4,18.982,5.73a4.71,4.71,0,0,1,.13,3.386A3.877,3.877,0,0,1,20.4,12.054c0,4.813-2.938,5.2-5.726,5.511a2.949,2.949,0,0,1,.848,2.314c0,1.681-.015,3.761-.015,4.17,0,.324.229.718.863.6a12.389,12.389,0,0,0,8.369-11.92A12.229,12.229,0,0,0,12.209.562Zm-7.361,17.2c-.065.05-.05.165.035.259s.195.115.259.05.05-.165-.035-.259S4.913,17.7,4.848,17.764Zm-.539-.4c-.035.065.015.145.115.195a.148.148,0,0,0,.214-.035c.035-.065-.015-.145-.115-.195C4.424,17.3,4.344,17.31,4.309,17.36Zm1.616,1.776c-.08.065-.05.214.065.309.115.115.259.13.324.05s.035-.214-.065-.309C6.14,19.071,5.99,19.056,5.925,19.136ZM5.357,18.4c-.08.05-.08.18,0,.294s.214.165.279.115a.227.227,0,0,0,0-.309C5.566,18.388,5.436,18.338,5.357,18.4Z" transform="translate(0 -0.563)" fill="#fff"/>
</svg>
