<svg xmlns="http://www.w3.org/2000/svg" width="22.789" height="22.789" viewBox="0 0 22.789 22.789">
  <path id="Icon_awesome-linkedin-in" data-name="Icon awesome-linkedin-in" d="M5.1,22.79H.376V7.575H5.1ZM2.736,5.5A2.749,2.749,0,1,1,5.472,2.737,2.759,2.759,0,0,1,2.736,5.5ZM22.784,22.79H18.07V15.383c0-1.765-.036-4.029-2.456-4.029-2.456,0-2.833,1.918-2.833,3.9V22.79H8.061V7.575h4.531V9.65h.066a4.965,4.965,0,0,1,4.47-2.457c4.782,0,5.661,3.149,5.661,7.239V22.79Z" transform="translate(0 -0.001)" fill="#fff"/>
</svg>
